<?xml version="1.0" encoding="UTF-8"?>
<svg width="748.59mm" height="137.23mm" version="1.1" viewBox="0 0 748.59 137.23" xmlns="http://www.w3.org/2000/svg" xmlns:cc="http://creativecommons.org/ns#" xmlns:dc="http://purl.org/dc/elements/1.1/" xmlns:rdf="http://www.w3.org/1999/02/22-rdf-syntax-ns#">
 <metadata>
  <rdf:RDF>
   <cc:Work rdf:about="">
    <dc:format>image/svg+xml</dc:format>
    <dc:type rdf:resource="http://purl.org/dc/dcmitype/StillImage"/>
    <dc:title/>
    <dc:title/>
   </cc:Work>
  </rdf:RDF>
 </metadata>
 <g>
  <g transform="translate(268.46 -79.551)" stroke-width=".35278">
   <path d="m-222.25 197.51c-11.862-1.13-24.425-6.2737-31.633-12.952-8.6282-7.9935-14.58-22.478-14.58-35.481 0-6.7592 1.763-11.54 5.7898-15.702 2.7758-2.8685 6.5147-5.298 13.084-8.5016 6.7291-3.2817 11.664-4.9686 22.193-7.5864 4.639-1.1534 8.4661-2.138 8.5047-2.188 0.0385-0.05 1.0349-2.0753 2.2142-4.5006s3.2936-6.156 4.6986-8.2903c6.6572-10.113 17.565-17.537 31.001-21.1 4.0009-1.061 4.1886-1.0769 12.704-1.0763 7.6068 5.26e-4 9.0871 0.09519 12.347 0.78957 13.64 2.9053 23.793 8.9692 32.739 19.554 4.1508 4.911 10.925 13.653 13.449 17.355 5.9512 8.73 9.7694 19.649 11.532 32.979 1.264 9.5608 0.92914 14.169-1.4941 20.56-1.7076 4.5037-5.6528 9.6236-9.3937 12.19-4.281 2.9375-10.704 5.3435-16.603 6.2195-4.6115 0.68474-6.6059 0.68501-10.821 1e-3 -8.8301-1.432-14.708-3.514-27.963-9.9042-5.3843-2.5958-10.055-4.7197-10.379-4.7197-0.32421 0-2.507 1.8713-4.8507 4.1584-11.606 11.325-17.899 15.215-28.074 17.351-3.3121 0.69529-11.195 1.1551-14.464 0.84373z" fill="#dbde70"/>
   <path d="m-223.31 197.14c-3.1625-0.33301-9.225-1.6671-12.6-2.7726-10.133-3.3192-18.433-9.1643-23.279-16.393-6.8958-10.286-10.805-25.745-8.7325-34.536 1.8149-7.6994 6.2774-12.221 17.699-17.933 7.3019-3.6518 12.642-5.4959 23.805-8.2206l7.652-1.8677 2.4606-4.9666c5.4884-11.078 10.972-17.247 20.232-22.76 16.899-10.061 37.975-10.313 56.405-0.67581 8.268 4.3238 14.219 10.261 26.466 26.406 6.1858 8.1545 8.5186 12.656 11.42 22.035 1.9749 6.384 2.3862 8.2873 3.3299 15.41 1.4219 10.731 0.74414 16.274-2.843 23.25-2.6949 5.2407-6.6206 8.9477-12.477 11.782-7.4066 3.5848-15.712 4.8445-23.325 3.5378-8.463-1.4526-13.699-3.2855-25.182-8.8143-9.2015-4.4306-12.254-5.8174-12.805-5.8174-0.20353 0-2.3666 1.9526-4.8068 4.3391-12.453 12.179-19.936 16.424-31.507 17.875-2.7303 0.34235-9.1843 0.40758-11.912 0.12038zm97.935-15.837c6.1345-1.0838 10.129-3.0531 13.947-6.8756 2.8778-2.8815 4.761-6.1553 5.5663-9.6768 1.1799-5.1595 1.0528-13.518-0.30708-20.19-1.8613-9.1335-5.0192-15.342-14.134-27.787-9.558-13.05-14.251-18.183-20.202-22.098-6.1551-4.0486-9.3238-5.2494-16.262-6.1627-8.5233-1.1219-16.337-0.24252-25.899 2.9147-11.149 3.6813-18.418 9.2508-23.722 18.175-2.0014 3.3672-1.978 3.4112 1.4627 2.7458 4.3584-0.84292 18.756-2.8267 23.203-3.1971 2.6359-0.21952 5.728-0.30135 6.8714-0.18184 1.8922 0.19778 2.3363 0.0991 4.9441-1.0988 2.7254-1.2519 3.0458-1.3164 6.5693-1.3222 3.2204-5e-3 3.9935 0.11573 5.9192 0.92707 3.6492 1.5375 6.0354 3.1467 9.0784 6.1223 5.694 5.568 9.9534 13.624 10.614 20.075 0.68969 6.7317-4.0749 15.388-9.9604 18.096-1.8001 0.82833-2.6291 0.97146-6.3677 1.0994l-4.2982 0.14712-1.6089 2.769c-0.8849 1.523-3.2766 4.9858-5.315 7.6953-2.0384 2.7095-3.7061 5.1015-3.7061 5.3156 0 0.46951 0.24008 0.57418 15.346 6.6904 13.24 5.3608 14.963 5.9854 17.599 6.3798 2.2732 0.34009 6.9472 0.0932 10.663-0.56318zm-89.998-5.937c7.9328-1.4561 14.04-3.6786 23.283-8.4735 17.426-9.0394 25.76-16.304 30.692-26.754 2.7136-5.7499 3.8082-12.156 2.666-15.605-1.3155-3.9716-6.4605-8.0898-11.924-9.5442-5.2493-1.3973-15.966-1.2957-24.08 0.22845-6.6027 1.2403-7.4083 1.4242-7.4083 1.6913 0 0.14468 1.0336 0.46849 2.2968 0.71958 4.0353 0.80208 11.078 4.8598 14.511 8.3607 2.4548 2.5033 5.557 7.2463 6.682 10.216 0.75194 1.985 0.89225 2.8461 0.75368 4.625-0.60337 7.7454-9.4145 15.2-22.127 18.721-3.1502 0.87238-3.828 0.92906-11.289 0.94399-10.454 0.0209-11.469-0.22898-21.696-5.3416-7.2408-3.6199-8.2903-4.6942-8.2903-8.4873 0-3.0336 1.1885-7.148 3.3471-11.587 1.6858-3.4669 2.3197-4.3524 5.5005-7.684 1.9773-2.071 3.5273-3.8333 3.4445-3.9161-0.17602-0.17602-8.6754 2.2828-11.763 3.403-3.2312 1.1723-6.4148 2.84-10.003 5.2399-8.4693 5.665-11.876 11.007-11.808 18.517 0.0544 6.0822 2.9085 12.224 8.0397 17.301 4.1958 4.1516 8.8935 6.4546 15.87 7.7802 3.5505 0.6746 18.972 0.43963 23.301-0.35504z" fill="#9faf4e"/>
   <path d="m-223.31 196.78c-12.566-1.3232-26.328-7.7267-32.687-15.21-5.0409-5.9315-8.8357-13.77-10.707-22.118-0.43503-1.9403-0.96953-3.9089-1.1878-4.3746-0.53146-1.1342-0.52597-10.239 7e-3 -11.358 0.22201-0.46631 0.67972-1.6416 1.0171-2.6117 1.4603-4.1987 5.0266-8.4085 9.711-11.463 3.107-2.026 12.864-6.7644 16.738-8.1286 1.7462-0.61495 7.3791-2.1774 12.517-3.4722l9.3425-2.3541 2.652-5.2912c1.4586-2.9102 3.6839-6.7884 4.945-8.6183 7.0282-10.198 19.393-17.959 32.566-20.442 8.7492-1.6489 9.5288-1.6856 16.47-0.77492 14.261 1.8711 25.212 6.897 33.889 15.552 2.0495 2.0444 5.8721 6.4159 8.4947 9.7144 11.549 14.526 13.92 18.522 17.219 29.026 1.9894 6.334 2.7024 9.6261 3.57 16.483 0.95282 7.5301 0.80142 12.305-0.53473 16.865-3.1493 10.748-10.365 17.2-22.598 20.204-7.0641 1.735-12.641 1.5444-21.519-0.73552-6.2283-1.5994-9.753-3.0043-20.285-8.0855-4.9477-2.3871-9.5794-4.5482-10.293-4.8025l-1.2969-0.46234-4.5239 4.354c-12.748 12.27-19.397 16.142-30.565 17.8-3.3213 0.49316-9.7171 0.64336-12.941 0.30391zm98.954-11.714c6.7772-1.4061 11.941-4.0543 16.267-8.3419 5.6728-5.6227 7.1892-11.287 6.1347-22.916-1.3804-15.223-5.5479-25.467-16.234-39.904-5.2684-7.1178-15.367-18.453-19.103-21.442-6.9378-5.5509-16.328-8.4153-27.634-8.4297-15.122-0.01918-30.612 6.1556-39.609 15.79-3.4831 3.7297-9.8108 13.503-9.1622 14.152 0.23774 0.23774 2.7386-0.0785 10.142-1.2825 21.353-3.4726 30.052-3.9422 35.807-1.9332 4.3489 1.5182 7.5013 3.2453 9.4129 5.1569 5.6166 5.6166 6.2103 17.625 1.5707 31.771-1.6324 4.9771-4.0625 9.0201-10.543 17.54-2.2798 2.9974-4.1451 5.5582-4.1451 5.6906 0 0.26476 13.275 6.7697 16.933 8.2974 1.2612 0.5267 3.4043 1.5169 4.7625 2.2005 6.1852 3.1129 10.905 4.2609 17.639 4.2905 3.1783 0.014 5.5608-0.18203 7.7611-0.63855zm-92.318-6.7882c12.123-1.9652 24.504-7.3217 38.872-16.817 4.039-2.6692 6.0115-4.2754 9.3745-7.6334 4.9141-4.9068 7.5545-8.6593 10.088-14.336 3.346-7.4985 3.96-13.298 1.8932-17.882-2.3259-5.1586-9.2388-9.3377-17.118-10.348-9.5978-1.2309-46.385 5.1393-65.395 11.324-4.6396 1.5094-14.811 6.356-18.441 8.7874-3.0388 2.0351-6.5575 5.8829-7.8317 8.564-2.7978 5.8874-2.8313 13.354-0.0909 20.198 3.8937 9.724 11.337 15.264 23.954 17.828 7.3643 1.4966 16.678 1.616 24.694 0.31647zm0.0669-18.166c-6.5935-0.94424-8.6507-1.6329-16.228-5.4324-7.4116-3.7165-8.3836-4.8394-7.9303-9.1619 0.32935-3.1405 1.6924-7.3213 3.623-11.112 1.4006-2.7505 2.2148-3.7762 6.0893-7.6718 4.2142-4.2371 4.684-4.5978 8.1362-6.2465 8.1495-3.892 17.001-4.5072 25.068-1.7424 2.4669 0.8455 6.6323 3.1422 9.5281 5.2537 3.974 2.8976 9.0362 10.319 9.791 14.354 0.73866 3.9489-1.0775 8.2438-5.1029 12.068-5.7624 5.4738-14.171 8.9307-23.274 9.5683-4.5674 0.31994-8.0237 0.36403-9.7014 0.12376z" fill="#5f605d"/>
   <path d="m-222.87 196.65c-11.522-1.1141-23.553-6.1318-30.674-12.793-6.167-5.7689-11.391-15.862-13.414-25.915-0.3399-1.6895-0.77894-3.1851-0.97564-3.3235-0.47857-0.3368-0.47812-10.096 4.8e-4 -10.433 0.19697-0.13852 0.71049-1.3631 1.1412-2.7213 1.4346-4.5244 4.5738-8.3674 9.4368-11.553 3.524-2.3082 13.51-7.0961 17.704-8.4883 3.068-1.0184 15.243-4.2116 20.43-5.3582 0.54379-0.12021 1.3998-1.4962 3.2334-5.1974 4.6425-9.3713 8.7689-14.592 15.57-19.698 4.4306-3.3267 10.585-6.4655 16.088-8.2053 4.1048-1.2978 9.5151-2.3542 12.057-2.3542 0.83893 0 1.5253-0.15875 1.5253-0.35278 0-0.20187 1.0653-0.35278 2.4903-0.35278 1.3696 0 2.4067 0.13515 2.3046 0.30033s1.3007 0.39796 3.1172 0.51729c6.5935 0.43311 13.945 2.4195 20.633 5.5748 9.492 4.4786 15.21 9.9179 28.14 26.769 7.1738 9.349 10.143 15.536 13.368 27.857 1.3702 5.2339 2.7346 16.456 2.4736 20.346-0.54757 8.1626-4.2721 16.062-9.6313 20.428-3.8944 3.1724-9.7691 5.7667-15.976 7.0554-9.928 2.0612-22.387-0.6329-37.218-8.048-5.079-2.5393-13.808-6.6076-14.177-6.6076-0.11427 0-2.3686 2.1084-5.0097 4.6853-10.676 10.416-16.765 14.439-25.008 16.521-6.0864 1.5371-11.435 1.9458-17.629 1.3469zm98.513-11.579c6.7772-1.4061 11.941-4.0543 16.267-8.3419 5.6728-5.6227 7.1892-11.287 6.1347-22.916-1.3804-15.223-5.5479-25.467-16.234-39.904-5.2684-7.1178-15.367-18.453-19.103-21.442-6.9378-5.5509-16.328-8.4153-27.634-8.4297-15.122-0.01918-30.612 6.1556-39.609 15.79-3.4831 3.7297-9.8108 13.503-9.1622 14.152 0.23774 0.23774 2.7386-0.0785 10.142-1.2825 21.353-3.4726 30.052-3.9422 35.807-1.9332 4.3489 1.5182 7.5013 3.2453 9.4129 5.1569 5.6166 5.6166 6.2103 17.625 1.5707 31.771-1.6324 4.9771-4.0625 9.0201-10.543 17.54-2.2798 2.9974-4.1451 5.5582-4.1451 5.6906 0 0.26476 13.275 6.7697 16.933 8.2974 1.2612 0.5267 3.4043 1.5169 4.7625 2.2005 6.1852 3.1129 10.905 4.2609 17.639 4.2905 3.1783 0.014 5.5608-0.18203 7.7611-0.63855zm-92.318-6.7882c12.123-1.9652 24.504-7.3217 38.872-16.817 4.039-2.6692 6.0115-4.2754 9.3745-7.6334 4.9141-4.9068 7.5545-8.6593 10.088-14.336 3.346-7.4985 3.96-13.298 1.8932-17.882-2.3259-5.1586-9.2388-9.3377-17.118-10.348-9.5978-1.2309-46.385 5.1393-65.395 11.324-4.6396 1.5094-14.811 6.356-18.441 8.7874-3.0388 2.0351-6.5575 5.8829-7.8317 8.564-2.7978 5.8874-2.8313 13.354-0.0909 20.198 3.8937 9.724 11.337 15.264 23.954 17.828 7.3643 1.4966 16.678 1.616 24.694 0.31647zm0.0669-18.166c-6.5935-0.94424-8.6507-1.6329-16.228-5.4324-7.4116-3.7165-8.3836-4.8394-7.9303-9.1619 0.32935-3.1405 1.6924-7.3213 3.623-11.112 1.4006-2.7505 2.2148-3.7762 6.0893-7.6718 4.2142-4.2371 4.684-4.5978 8.1362-6.2465 8.1495-3.892 17.001-4.5072 25.068-1.7424 2.4669 0.8455 6.6323 3.1422 9.5281 5.2537 3.974 2.8976 9.0362 10.319 9.791 14.354 0.73866 3.9489-1.0775 8.2438-5.1029 12.068-5.7624 5.4738-14.171 8.9307-23.274 9.5683-4.5674 0.31994-8.0237 0.36403-9.7014 0.12376z" fill="#577036"/>
   <path d="m-217.49 159.75c-5.0234-0.62689-9.6432-2.2863-16.574-5.9533-5.2024-2.7524-6.2183-3.715-6.4484-6.1099-0.32383-3.3701 1.654-9.8836 4.4584-14.683 1.6165-2.7664 6.9647-8.2687 9.9953-10.283 4.9858-3.3146 11.155-5.108 17.741-5.1571 7.1195-0.0531 11.672 1.2867 17.681 5.2036 3.7932 2.4725 6.0418 4.7584 8.6782 8.8221 3.7495 5.7793 4.1948 9.1774 1.824 13.917-3.3595 6.7152-14.044 12.791-24.823 14.115-2.811 0.34529-10.192 0.4215-12.533 0.12941z" fill="#5d3007"/>
   <path d="m146.12 209.75c-3.3392-0.85691-7.6908-3.9257-9.6428-6.8001-2.4518-3.6105-3.708-6.8304-4.7553-12.189-0.27485-1.4062-0.74249-3.7875-1.0392-5.2917-0.6641-3.3664-1.0526-8.4334-1.5755-20.55-0.72154-16.719 1.057-42.289 3.4721-49.918 0.18426-0.58208 0.53287-1.7727 0.77467-2.6458 0.61013-2.2032 1.4784-4.6939 1.7832-5.1153 0.14037-0.19403 0.68736-1.3846 1.2155-2.6457 1.4967-3.5736 5.2206-8.9714 7.0646-10.24 2.7464-1.8896 3.6335-2.1079 8.5298-2.0995 5.0188 0.0086 6.7395 0.49161 8.1529 2.2886 0.87909 1.1176 1.0356 3.3907 0.2769 4.0205-0.34961 0.29015-1.9847 0.33853-5.7326 0.16962l-5.2435-0.23632-2.1167 1.0764c-2.7352 1.3909-4.0154 2.785-5.7441 6.2555-3.1155 6.2543-5.2332 14.223-6.2814 23.636-0.5485 4.9258-1.2543 19.764-1.2668 26.635-0.01 5.428 0.73646 20.606 1.0929 22.225 0.19219 0.87313 0.44584 2.9369 0.56367 4.5861 0.33461 4.6833 1.7935 10.917 3.2436 13.859 1.0735 2.1781 3.0518 4.3561 4.738 5.2164 1.5725 0.80223 7.0314 0.9607 8.6646 0.25153 4.0636-1.7646 5.6265-4.095 7.2832-10.86 0.89563-3.6575 1.9055-16.597 1.9604-25.119 0.0198-3.0769 0.19809-5.5482 0.43819-6.0752 0.51273-1.1253 2.356-1.7532 4.2924-1.4621 0.8121 0.12208 4.1486 0.33621 7.4144 0.47585 5.3019 0.2267 5.9914 0.32723 6.4382 0.93868 0.65803 0.90066 0.63246 1.2108-0.21428 2.5996-1.0861 1.7814-2.4794 2.1836-7.5644 2.1836-6.198 0-5.8319-0.54795-5.833 8.7312 0 13.776-2.3599 24.101-7.0768 30.983-1.022 1.491-3.9861 3.8954-5.7597 4.672-1.2836 0.56201-6.0112 0.84025-7.5532 0.44453zm-222.85-0.53079c-1.5224-0.66406-2.534-2.2564-3.1668-4.9848-0.75069-3.2369-1.1068-27.013-0.55978-37.375 1.021-19.34 2.5906-31.531 5.4954-42.681 0.84648-3.2491 3.8711-11.594 5.5643-15.351 2.4408-5.4167 7.3449-10.859 11.604-12.876 9.4953-4.4987 19.458-3.2379 28.974 3.6667 4.5555 3.3053 7.6239 6.9403 8.8855 10.526 1.3448 3.8227 1.3608 3.8419 3.9042 4.6883 5.3597 1.7836 10.1 9.2207 11.801 18.513 0.17752 0.97014 0.79374 3.9864 1.3694 6.7028 1.4787 6.9776 2.2265 15.822 1.7597 20.814-0.5528 5.9123-1.8673 8.145-6.3705 10.82-1.3394 0.79574-2.5763 1.7103-2.7487 2.0324-0.18355 0.34297-0.17393 2.5519 0.02321 5.3317 0.18514 2.6104 0.57163 9.588 0.85887 15.506 0.28724 5.9178 0.61585 11.339 0.73024 12.048 0.16422 1.0172 0.052239 1.4441-0.53213 2.0285-0.72406 0.72406-1.014 0.74012-13.362 0.74012-10.603 0-12.741-0.084-13.371-0.52493-1.2785-0.89553-1.8765-3.4105-1.882-7.9164-0.0028-2.2453-0.22844-6.781-0.50146-10.08-0.58807-7.1047-1.4419-10.173-3.4076-12.245l-1.2683-1.3369h-2.9969c-2.6308 0-3.2583 0.13061-5.1364 1.0691-3.3274 1.6627-3.3954 1.8433-3.7166 9.867-0.15143 3.7835-0.35916 9.9197-0.46161 13.636l-0.18628 6.7567-0.9495 0.35834c-0.52223 0.19708-5.077 0.44133-10.122 0.54277-7.1121 0.14302-9.4099 0.0808-10.231-0.27718zm13.706-5.8177c0.94154-0.15472 1.835-0.48053 1.9855-0.72401 0.26922-0.43561 0.40826-2.3895 1.0676-15.004 0.45126-8.6331 1.09-10.812 3.94-13.439 2.202-2.0297 5.4512-2.752 12.476-2.7731 4.4346-0.0133 5.4574 0.0834 6.2303 0.58888 1.1509 0.75277 2.5277 3.6616 3.0533 6.4507 0.65196 3.4595 1.3997 11.577 1.6643 18.069 0.207 5.0784 0.34667 6.1642 0.85164 6.6212 0.51592 0.4669 1.8076 0.53281 8.8547 0.45181l8.2506-0.0948 0.49099-1.0249c0.52012-1.0857 0.39914-5.1544-0.85073-28.608-0.66058-12.396-1.6309-24.439-2.3023-28.575-0.18899-1.1642-0.4932-3.0692-0.67602-4.2333-0.72816-4.6367-2.7139-15.384-3.1614-17.11-0.17607-0.6791-0.56234-2.2666-0.85838-3.5278-1.5651-6.6674-2.007-8.1875-2.8851-9.9225-2.3289-4.6019-9.8557-9.8825-17.087-11.988-4.3245-1.2591-10.802-0.52568-14.859 1.6824-2.4685 1.3436-5.5821 4.2951-6.9707 6.608-2.189 3.6461-5.8686 13.668-7.5909 20.676-0.52936 2.1538-1.5754 8.4402-2.8175 16.933-1.7229 11.78-2.8651 45.294-1.8375 53.913 0.28512 2.3914 0.70616 4.5742 0.93565 4.8507 0.32675 0.39372 1.4983 0.4982 5.4011 0.48174 2.7411-0.0116 5.7542-0.14762 6.6958-0.30235zm10.988-62.149c-8.9852-0.38474-14.377-2.5892-16.086-6.577-1.1808-2.7546-0.64716-9.2638 1.092-13.321 0.82485-1.9243 3.241-4.6041 4.9262-5.4638 2.9135-1.4863 7.4794-2.1462 14.834-2.1439 8.7687 3e-3 13.369 1.2947 15.447 4.3376 1.6481 2.414 2.6651 6.1868 3.2819 12.175 0.67882 6.5907-0.30655 8.3767-5.5583 10.075-2.328 0.75262-3.5796 0.91336-7.8827 1.0123-2.8134 0.0647-7.3378 0.0225-10.054-0.0938zm14.219-4.7025c2.0265-0.49045 2.8745-0.9066 3.9687-1.9475 1.2979-1.2347 1.3916-1.4571 1.3916-3.305 0-2.1567-1.0221-6.9936-1.9527-9.2405-1.316-3.1777-3.2076-3.9643-10.479-4.3579-5.7221-0.30973-11.356 0.24407-13.984 1.3745-3.7271 1.6034-5.675 5.0812-5.8013 10.358-0.05823 2.4334 0.01044 2.697 1.0334 3.9661 1.4085 1.7474 2.5299 2.382 5.7834 3.2728 2.3548 0.64476 3.4607 0.71228 10.054 0.61388 5.5701-0.0831 8.0478-0.26534 9.9855-0.7343zm30.24 29.373c2.5359-2.2266 2.7506-3.1148 2.5411-10.514-0.19592-6.9173-0.32877-7.9085-2.2245-16.596-1.7647-8.0868-4.5402-15.347-6.7773-17.727-1.0186-1.0839-2.4471-1.2793-2.7915-0.38186-0.12416 0.32355-0.04324 1.3951 0.17982 2.3812 1.8735 8.2826 2.4789 11.278 2.68 13.258 0.12808 1.2612 0.46815 4.1187 0.75571 6.35 0.28756 2.2313 0.67699 5.3269 0.86538 6.8792 0.1884 1.5522 0.50465 4.0922 0.70278 5.6444 0.19813 1.5522 0.5023 4.6127 0.67594 6.801 0.42088 5.3044 1.0167 5.99 3.3925 3.9039zm9.1625 42.965c-0.38988-0.59504-0.45618-1.0756-0.23118-1.6757 0.17352-0.46276 0.42507-1.9526 0.559-3.3108 0.13393-1.3582 0.40146-2.9736 0.5945-3.5897 0.19305-0.61613 0.4825-2.2036 0.64323-3.5278 0.2884-2.3761 0.77453-5.1298 1.4526-8.2284 0.19106-0.87312 0.48514-2.6194 0.65351-3.8806 0.16837-1.2612 0.48681-3.2456 0.70764-4.4097 0.59525-3.138 1.329-7.5437 2.115-12.7 0.85385-5.601 0.9549-6.2361 1.628-10.231 0.29426-1.7462 0.74682-5.0176 1.0057-7.2697 0.25887-2.2521 0.5702-4.2557 0.69186-4.4526 0.12166-0.19684 0.37977-1.6086 0.57358-3.1373 0.19382-1.5287 0.59655-4.4462 0.89496-6.4835s0.76457-5.2917 1.0359-7.2319c0.55438-3.9643 1.1321-7.6101 1.6212-10.231 0.18106-0.97014 0.66438-4.3039 1.074-7.4083 0.40966-3.1044 1.0478-7.5222 1.4182-9.8172 0.37033-2.295 0.67333-4.5497 0.67333-5.0105 0-1.2875 0.66396-2.4582 1.7621-3.1069 1.2907-0.76244 1.9427-0.48063 2.5833 1.1166 0.28583 0.71263 0.91781 2.1688 1.4044 3.236 0.49979 1.0961 1.0533 3.2449 1.2722 4.9389 1.3133 10.163 1.7019 12.271 4.2921 23.283 0.57048 2.4254 1.0363 4.6693 1.0351 4.9866-0.0011 0.31727 0.22041 1.3491 0.49234 2.293 0.27194 0.94391 0.68138 2.6687 0.90988 3.8329 0.2285 1.1642 0.63657 3.2279 0.90682 4.5861 1.2045 6.0534 2.7518 14.427 3.5529 19.226 1.1898 7.1289 1.5674 9.5032 1.9073 11.994 0.19855 1.4552 0.45165 2.884 0.56244 3.175 0.11078 0.29104 0.43499 2.2754 0.72046 4.4097 0.28547 2.1343 0.60457 4.4794 0.7091 5.2113 0.38309 2.6823 2.6727 2.2876 3.039-0.52381 0.1084-0.83186 0.52506-4.2112 0.92591-7.5097 0.40086-3.2985 1.0497-8.3785 1.4419-11.289 0.3922-2.9104 0.80362-6.3235 0.91428-7.5847s0.35785-2.7095 0.54931-3.2185c0.19147-0.50899 0.48758-2.0965 0.65802-3.5278 0.17044-1.4313 0.56319-4.1105 0.87277-5.9537 0.30959-1.8433 0.78314-4.8595 1.0523-6.7028 0.45594-3.122 0.95911-6.2533 2.1258-13.229 0.2596-1.5522 0.71337-4.3303 1.0084-6.1736 0.99252-6.2013 1.6421-10.043 1.9981-11.818 0.19461-0.97014 0.49679-2.7958 0.6715-4.057 1.1226-8.1038 1.9304-10.693 3.6289-11.631 0.91507-0.50542 1.0078-0.47859 2.14 0.61874 1.7326 1.6793 2.551 4.8976 3.4284 13.482 0.18839 1.8433 0.42958 3.7483 0.53598 4.2333 0.2553 1.1639 1.1293 7.787 1.5829 11.994 0.19869 1.8433 0.45639 3.5895 0.57266 3.8806 0.11627 0.29104 0.42352 2.5135 0.68278 4.9389 0.25926 2.4254 0.73002 6.3147 1.0461 8.643 0.31612 2.3283 0.64513 4.9477 0.73113 5.8208 0.086 0.87312 0.39257 3.4131 0.68127 5.6444 0.67429 5.2114 1.5188 12.661 2.1197 18.697 0.26074 2.6194 0.72917 6.8262 1.0409 9.3486 0.31178 2.5224 0.79613 6.8086 1.0764 9.525s0.7705 7.1614 1.0895 9.8778c0.31901 2.7164 0.59806 6.1251 0.62011 7.5748 0.03851 2.5318 0.0041 2.6487-0.87126 2.9578-0.6353 0.22438-1.223 0.17255-1.9403-0.17112-0.86604-0.41496-1.0681-0.77149-1.2766-2.2523-0.13619-0.9676-0.50203-3.4262-0.81297-5.4634-0.31094-2.0373-0.79656-5.6885-1.0791-8.1139-0.28258-2.4254-0.75488-6.4735-1.0495-8.9958-0.29466-2.5224-0.68607-6.3324-0.8698-8.4667-0.18373-2.1343-0.43236-4.1981-0.5525-4.5861-0.12015-0.38806-0.43924-3.0074-0.70909-5.8208-0.26986-2.8134-0.7313-7.179-1.0254-9.7014-0.29414-2.5224-0.67335-6.1736-0.8427-8.1139-0.32005-3.6669-1.0715-10.143-1.9853-17.11-0.29268-2.2313-0.85701-6.6763-1.2541-9.8778-0.9697-7.8185-0.85401-7.4083-2.0897-7.4083-1.2872 0-1.6903 0.6877-2.1215 3.619-0.55544 3.7762-1.3376 8.1756-1.5517 8.7282-0.11277 0.29105-0.36742 1.561-0.56589 2.8222-0.19846 1.2612-0.5973 3.6424-0.88628 5.2917-0.28899 1.6492-0.68859 4.1892-0.888 5.6444s-0.52476 3.5983-0.72301 4.7625c-0.19824 1.1642-0.59952 4.0217-0.89174 6.35-0.29222 2.3283-0.76418 5.9002-1.0488 7.9375-0.56561 4.0486-1.3044 9.6869-1.9183 14.64-0.21643 1.7462-0.55295 3.9688-0.74782 4.9389-0.3549 1.7668-0.62658 4.1855-1.5058 13.406-0.25903 2.7164-0.56911 5.177-0.68907 5.4681-0.21315 0.51713-0.54765 2.4709-1.4378 8.398-0.48726 3.2445-0.90041 3.8784-2.7202 4.1737-2.0585 0.33405-2.6183-0.64317-3.6652-6.398-0.28237-1.5522-0.75412-4.0128-1.0483-5.4681-0.29421-1.4552-0.67728-3.5983-0.85125-4.7625-0.17397-1.1642-0.74462-4.736-1.2681-7.9375s-1.166-7.2496-1.4278-8.9958-0.71982-4.7625-1.0177-6.7028-0.70602-4.7184-0.90688-6.1736c-0.20085-1.4552-0.45663-2.884-0.5684-3.175-0.11176-0.29104-0.41663-2.0373-0.67747-3.8806-1.1166-7.8908-1.5876-10.489-3.1652-17.462-1.102-4.8713-1.5912-7.0964-2.1328-9.7014-0.30254-1.4552-0.92211-4.2333-1.3768-6.1736-0.45471-1.9403-0.9219-4.0683-1.0382-4.7289-0.25757-1.463-0.78574-2.1503-1.6525-2.1503-0.9142 0-1.6046 1.5284-2.0787 4.6019-0.65231 4.2287-1.3892 8.8828-1.6172 10.215-1.3383 7.8163-3.1429 19.028-3.6623 22.754-0.21638 1.5522-0.56617 3.5953-0.77731 4.5402-0.37782 1.6909-0.51348 2.5496-1.5118 9.5709-1.3262 9.3268-1.5458 10.727-1.7286 11.023-0.10803 0.17479-0.36615 1.4967-0.57361 2.9376-0.20746 1.4409-0.60331 3.9692-0.87967 5.6184-0.27636 1.6492-0.67643 4.348-0.88904 5.9972-0.21261 1.6492-0.6133 4.4274-0.89043 6.1736-0.27713 1.7462-0.5973 4.1275-0.71149 5.2917-0.40844 4.1641-1.057 5.1153-3.488 5.1153-0.92479 0-1.3919-0.21696-1.7965-0.83433zm98.498 0.34656c-4.4923-1.673-7.6037-5.8284-10.259-13.702-1.3076-3.8765-2.5285-9.7202-3.0425-14.562-0.18538-1.7462-0.50966-3.9688-0.72065-4.9389-1.5029-6.9111-1.512-53.094-0.01129-57.856 0.18344-0.58208 0.43374-2.0108 0.55622-3.175 0.12248-1.1642 0.45459-3.1485 0.73798-4.4097 2.0833-9.2713 3.848-13.588 6.5872-16.113 2.3717-2.1861 2.9158-2.3926 6.2574-2.3746 4.0699 0.02193 6.1005 0.9959 9.4686 4.5417 6.1384 6.4621 9.6985 19.407 10.675 38.817 0.60353 11.991-0.21855 27.348-2.3228 43.392-1.733 13.213-4.1867 21.231-8.168 26.69-2.4363 3.3405-6.5352 4.8907-9.758 3.6904zm4.1538-7.2684c2.0412-1.2615 4.889-5.8692 5.999-9.7064 4.352-15.044 5.3353-24.281 5.0307-47.255-0.17392-13.118-0.34861-15.531-1.6994-23.477-1.7986-10.58-6.1565-20.47-10.198-23.145-1.2532-0.82937-1.6673-0.9192-3.4793-0.75488-1.1313 0.10258-2.4087 0.40232-2.8388 0.6661-1.6457 1.0093-4.2103 7.7542-5.0111 13.18-1.7289 11.712-2.2081 21.382-1.9757 39.864 0.21466 17.067 0.81065 24.518 2.7588 34.489 1.7098 8.7506 3.1751 12.717 5.6027 15.165 1.4664 1.4786 1.8392 1.6757 3.1699 1.6757 0.88879 0 1.9736-0.28769 2.6416-0.70058zm101.21 6.1678c-3.5886-1.7462-6.0989-4.5554-8.3319-9.3239-2.1822-4.6602-3.9637-9.9731-4.885-14.569-0.72214-3.6021-0.87507-4.7241-1.8886-13.854-0.98683-8.89-1.6177-14.416-1.9732-17.286-0.19234-1.5522-0.51354-4.9653-0.71381-7.5847-0.20027-2.6194-0.50543-5.9531-0.67811-7.4083-0.17269-1.4552-0.32382-4.3421-0.33581-6.4152-0.012-2.0732-0.16535-4.1469-0.34078-4.6084-0.17544-0.46144-0.42563-8.0521-0.55598-16.868-0.23343-15.789-0.22606-16.046 0.49018-17.176 1.1363-1.7916 3.1345-1.4339 3.8998 0.69811 0.28328 0.7893 0.45963 5.9327 0.55802 16.275 0.0791 8.3168 0.30403 16.016 0.49978 17.11 0.19576 1.0936 0.51287 4.8458 0.70475 8.3383 0.19187 3.4925 0.50701 8.0169 0.7003 10.054 0.55841 5.8857 1.1352 12.58 1.4163 16.439 0.14273 1.9595 0.36329 3.7306 0.49011 3.9358 0.12683 0.20521 0.39889 2.0151 0.60452 4.022 0.33204 3.2401 1.3647 9.9188 1.9429 12.566 1.2218 5.5932 2.899 11.558 3.6924 13.132 1.1138 2.2095 4.3688 5.948 6.1223 7.0318 1.5745 0.97308 5.7433 1.0093 7.7996 0.0677 2.1536-0.9861 4.5032-3.7762 6.3087-7.4914 1.8113-3.7271 2.2065-5.421 4.3122-18.482 0.93521-5.8006 1.8537-13.589 2.2675-19.226 0.84184-11.47 1.0021-16.463 1.2118-37.747 0.12795-12.994 0.37754-23.68 0.5703-24.417 0.56014-2.1406 2.7335-3.1194 3.9455-1.7768 1.1476 1.2711 1.4366 3.7006 0.98823 8.3058-0.23057 2.3683-0.56881 12.64-0.75162 22.827-0.47565 26.502-1.0335 36.373-2.6479 46.854-0.27838 1.8074-0.50511 3.7918-0.50384 4.4097 4e-3 1.3338-0.8993 6.646-1.6127 9.4967-0.27848 1.1127-0.50631 2.42-0.50631 2.9051 0 2.8208-2.8457 9.7915-5.8369 14.298-3.4087 5.1355-6.039 6.7063-11.214 6.6969-2.9657-5e-3 -3.4425-0.10738-5.7489-1.2296zm53.826 0.69181c-6.0274-1.2033-10.678-4.7268-13.683-10.366-2.0152-3.7822-2.31-4.8369-3.6066-12.903-0.18715-1.1642-0.34375-5.8151-0.34802-10.335-7e-3 -7.7936 0.0307-8.2726 0.73406-9.2604 0.8756-1.2297 1.8106-1.3281 2.7757-0.29213 0.63105 0.67736 0.71321 1.3828 0.85249 7.3201 0.2111 8.9979 1.5657 19.017 3.0258 22.381 1.1095 2.5559 4.3546 5.7798 7.0371 6.9914 2.0218 0.91307 2.6079 1.0106 6.0722 1.0106 4.3695 0 6.4389-0.5855 9.5876-2.7126 4.9163-3.3212 8.1432-7.8126 10.077-14.025 0.81795-2.6282 0.79848-10.538-0.0339-13.777-0.86124-3.3513-1.1932-4.1391-3.1221-7.4083-1.0506-1.7807-2.8916-4.0703-4.9883-6.204-4.311-4.387-7.3778-6.6075-13.866-10.04-5.2848-2.7955-6.5646-3.7147-10.021-7.1975-3.2812-3.3065-4.7302-5.6763-6.051-9.8964-0.75018-2.3969-0.82811-3.293-0.82811-9.525 0-6.3811 0.0682-7.1218 0.94135-10.231 2.0178-7.1837 4.8628-12.254 9.3521-16.667 3.165-3.1112 4.9888-3.797 10.071-3.7871 5.2164 0.01021 7.485 0.43182 10.673 1.9835 3.5081 1.7076 7.2395 5.1034 7.2395 6.5884 0 1.3049-0.93775 3.0627-1.6339 3.0627-0.3066 0-1.771-0.68211-3.2542-1.5158-6.8534-3.8522-12.076-5.1364-16.121-3.9638-1.8263 0.52942-2.4441 0.96306-4.7666 3.346-4.4299 4.5452-7.1469 10.739-7.7561 17.68-0.62022 7.0677 0.49297 12.198 3.6928 17.019 1.7288 2.6046 3.3707 3.896 8.1092 6.3786 11.469 6.009 20.865 14.392 24.686 22.024 1.3739 2.7444 2.9827 8.4984 3.4028 12.17 1.07 9.352-2.3044 18.796-9.1605 25.637-6.0298 6.017-11.769 7.9754-19.089 6.5139zm43.841-22.811 0.0975-5.3972 4.595-0.90033c2.5273-0.49518 4.7894-1.0205 5.0271-1.1674 0.63817-0.39441 0.62936-69.475-9e-3 -69.996-0.24253-0.19789-2.1872-0.69908-4.3215-1.1138-2.1343-0.41467-4.2377-0.83085-4.6743-0.92483-0.78162-0.16827-0.79375-0.25443-0.79375-5.6322l-1.1e-4 -5.4613 22.842 9.87e-4c23.375 1e-3 26.741 0.15245 31.728 1.4273 10.835 2.7697 19.755 9.9754 24.654 19.915 1.0519 2.1343 2.3408 5.4681 2.8643 7.4083 0.94551 3.5047 0.95261 3.62 1.0853 17.631 0.113 11.933 0.0436 14.641-0.4512 17.6-1.4387 8.6039-4.885 15.188-11.048 21.106-1.6824 1.6157-3.9801 3.5452-5.1059 4.2879-3.1946 2.1074-8.1867 4.3055-12.24 5.3896l-3.7042 0.99069-50.642 0.23395 0.0975-5.3972zm47.722-9.1106c5.7477-1.3395 11.183-5.7578 13.876-11.28 1.8277-3.7474 2.451-6.1449 2.935-11.289 0.55682-5.9187 0.17632-23.028-0.5884-26.458-2.1246-9.531-8.297-16.058-16.825-17.792-1.9697-0.40042-4.8103-0.55277-10.306-0.55277-7.1402 0-7.6087 0.0402-7.9524 0.68236-0.24423 0.45634-0.3652 11.549-0.3652 33.489 0 30.359 0.0446 32.851 0.59754 33.404 0.53876 0.53879 1.3971 0.57835 8.7312 0.40247 4.4735-0.10729 8.9275-0.38004 9.8976-0.60613zm42.039 14.238c-0.32113-0.32112-0.28903-9.7236 0.0349-10.201 0.14255-0.21023 2.3874-0.79669 4.9887-1.3032 2.6012-0.50655 4.861-1.1283 5.0217-1.3816 0.16069-0.25336 0.29461-15.869 0.29757-34.701 4e-3 -26.86-0.0896-34.363-0.43557-34.809-0.28551-0.36837-1.9334-0.84365-4.6743-1.3481-2.3283-0.42852-4.5153-0.92504-4.86-1.1034-0.56434-0.29198-0.61698-0.84021-0.52917-5.5103l0.0974-5.1861h24.694c18.677 0 25.425 0.11325 27.693 0.46476 14.649 2.2705 23.141 8.7112 25.433 19.291 0.68763 3.1732 0.60071 9.4337-0.16627 11.976-1.5014 4.9766-4.8812 9.452-8.9157 11.806-3.8494 2.246-3.7337 2.1521-3.298 2.6772 0.22042 0.26559 0.90573 0.58767 1.5229 0.71575 0.61719 0.12806 2.3128 0.79617 3.768 1.4847 4.9594 2.3464 8.8404 7.3436 10.482 13.497 0.8842 3.3134 0.78027 10.511-0.20521 14.216-2.3985 9.0155-8.4247 14.856-18.289 17.726-6.2406 1.8156-8.0543 1.9115-36.291 1.9185-14.374 4e-3 -26.241-0.0994-26.37-0.22872zm53.554-14.398c4.3115-1.2252 6.7065-3.0661 8.3607-6.4262 1.0091-2.0498 1.1712-2.7716 1.2908-5.747 0.3503-8.7218-3.0898-13.995-10.1-15.483-1.157-0.24549-6.0834-0.39666-12.927-0.39666-9.7575 0-11.083 0.0656-11.272 0.55802-0.1178 0.30691-0.21414 6.649-0.21414 14.094 0 12.51 0.0467 13.564 0.61736 13.917 0.42192 0.26097 4.0234 0.33441 11.377 0.23199 8.7223-0.12148 11.159-0.26323 12.867-0.74856zm-4.6727-41.268c3.3234-0.70429 5.2648-1.6457 7.2789-3.5296 2.3045-2.1556 3.2955-4.472 3.5023-8.1865 0.42065-7.554-3.5334-12.299-11.419-13.705-3.6476-0.64997-18.499-0.72692-19.127-0.0991-0.31298 0.313-0.42333 3.6154-0.42333 12.671 0 6.7363 0.0963 12.499 0.21414 12.806 0.18732 0.48819 1.3021 0.55725 8.9076 0.5519 6.1598-4e-3 9.3851-0.1527 11.067-0.50903z" fill="#fff"/>
  </g>
 </g>
</svg>
